<svg width="24" height="24" viewBox="0 0 24 24" fill="none" xmlns="http://www.w3.org/2000/svg">
<g id="heart">
<path id="heart_2" d="M4.36858 9.58672C4.36858 12.8035 7.0731 15.9826 11.2768 18.6947C11.5103 18.8454 11.7966 18.996 11.9925 18.996C12.1883 18.996 12.4746 18.8454 12.7081 18.6947C16.9194 15.9826 19.6164 12.8035 19.6164 9.58672C19.6164 6.80687 17.6953 4.8783 15.2319 4.8783C13.793 4.8783 12.6705 5.53371 11.9925 6.52813C11.3295 5.54124 10.1995 4.8783 8.7606 4.8783C6.28962 4.8783 4.36858 6.80687 4.36858 9.58672ZM5.92048 9.57919C5.92048 7.68075 7.17104 6.39253 8.85101 6.39253C10.207 6.39253 10.9679 7.21368 11.4425 7.92936C11.6535 8.23823 11.7966 8.33616 11.9925 8.33616C12.1959 8.33616 12.3239 8.2307 12.5424 7.92936C13.0547 7.22874 13.7854 6.39253 15.1339 6.39253C16.8214 6.39253 18.072 7.68075 18.072 9.57919C18.072 12.231 15.3147 15.169 12.1356 17.2784C12.0678 17.3236 12.0226 17.3537 11.9925 17.3537C11.9623 17.3537 11.9171 17.3236 11.8569 17.2784C8.67774 15.169 5.92048 12.231 5.92048 9.57919Z" fill="#959595"/>
</g>
</svg>
