<svg width="24" height="24" viewBox="0 0 24 24" fill="none" xmlns="http://www.w3.org/2000/svg">
<g id="paperplane.fill">
<path id="paperplane.fill_2" d="M13.1451 20.0659C13.7327 20.0659 14.1395 19.5913 14.4182 18.868L19.3903 5.85772C19.5184 5.52625 19.5938 5.23244 19.5938 4.9763C19.5938 4.44142 19.2547 4.10242 18.7123 4.10242C18.4637 4.10242 18.1624 4.17022 17.8309 4.29829L4.76786 9.30052C4.11998 9.54912 3.6303 9.95593 3.6303 10.5435C3.6303 11.2592 4.16518 11.5304 4.90346 11.7564L8.8058 12.9467C9.33315 13.1125 9.64202 13.1049 10.0112 12.7584L18.4035 4.98383C18.5089 4.8859 18.637 4.90097 18.7199 4.9763C18.8027 5.05164 18.8027 5.18724 18.7123 5.28517L10.9528 13.6925C10.6364 14.0466 10.6063 14.3781 10.7645 14.9054L11.9247 18.7324C12.1507 19.5009 12.4219 20.0659 13.1451 20.0659Z" fill="#959595"/>
</g>
</svg>
