<svg width="27" height="26" viewBox="0 0 27 26" fill="none" xmlns="http://www.w3.org/2000/svg">
<path id="Union" fill-rule="evenodd" clip-rule="evenodd" d="M13.5 0C14.0128 0 14.4286 0.423294 14.4286 0.945454V2.36364C14.4286 2.8858 14.0128 3.30909 13.5 3.30909C12.9872 3.30909 12.5714 2.8858 12.5714 2.36364V0.945455C12.5714 0.423294 12.9872 0 13.5 0ZM20.3714 13.2364C20.3714 17.1003 17.295 20.2327 13.5 20.2327C9.70501 20.2327 6.62857 17.1003 6.62857 13.2364C6.62857 9.37238 9.70501 6.24 13.5 6.24C17.295 6.24 20.3714 9.37238 20.3714 13.2364ZM21.8571 13.2364C21.8571 17.9358 18.1155 21.7455 13.5 21.7455C8.88447 21.7455 5.14285 17.9358 5.14285 13.2364C5.14285 8.53692 8.88447 4.72727 13.5 4.72727C18.1155 4.72727 21.8571 8.53692 21.8571 13.2364ZM16.4627 15.7678C16.576 15.7678 16.6886 15.765 16.8006 15.7593C16.0129 16.75 14.8101 17.381 13.4638 17.381C11.094 17.381 9.17284 15.4249 9.17284 13.012C9.17284 12.0864 9.45505 11.2279 9.93801 10.5208C10.6382 13.5295 13.2937 15.7678 16.4627 15.7678ZM17.3252 15.7214C17.3252 15.7214 17.3246 15.7212 17.3236 15.7206L17.3252 15.7214ZM18.2828 15.7092C18.6486 15.0331 17.8989 14.4008 17.1466 14.4959C16.9226 14.5242 16.6943 14.5387 16.4627 14.5387C13.4262 14.5387 10.9646 12.0324 10.9646 8.94069C10.9646 8.53987 10.5551 8.24378 10.2365 8.47929C8.86047 9.49676 7.9657 11.148 7.9657 13.012C7.9657 16.1037 10.4273 18.6101 13.4638 18.6101C15.5399 18.6101 17.3472 17.4385 18.2828 15.7092ZM22.363 5.43363C22.7256 5.06441 22.7256 4.46578 22.363 4.09656C22.0004 3.72734 21.4124 3.72734 21.0498 4.09656L20.0649 5.09937C19.7023 5.46859 19.7023 6.06722 20.0649 6.43644C20.4275 6.80566 21.0155 6.80566 21.3781 6.43644L22.363 5.43363ZM6.7375 19.8289C7.10013 20.1981 7.10013 20.7968 6.7375 21.166L5.7526 22.1688C5.38997 22.538 4.80203 22.538 4.4394 22.1688C4.07677 21.7996 4.07677 21.2009 4.4394 20.8317L5.4243 19.8289C5.78693 19.4597 6.37487 19.4597 6.7375 19.8289ZM14.4286 23.6364C14.4286 23.1142 14.0128 22.6909 13.5 22.6909C12.9872 22.6909 12.5714 23.1142 12.5714 23.6364V25.0545C12.5714 25.5767 12.9872 26 13.5 26C14.0128 26 14.4286 25.5767 14.4286 25.0545V23.6364ZM26.5 13.2364C26.5 13.7585 26.0843 14.1818 25.5714 14.1818H24.1786C23.6657 14.1818 23.25 13.7585 23.25 13.2364C23.25 12.7142 23.6657 12.2909 24.1786 12.2909H25.5714C26.0843 12.2909 26.5 12.7142 26.5 13.2364ZM21.47 21.8445C21.8327 22.2137 22.4206 22.2137 22.7832 21.8445C23.1458 21.4753 23.1458 20.8766 22.7832 20.5074L21.7983 19.5046C21.4357 19.1354 20.8478 19.1354 20.4851 19.5046C20.1225 19.8738 20.1225 20.4725 20.4851 20.8417L21.47 21.8445ZM6.73747 6.54C6.37484 6.90923 5.78691 6.90923 5.42428 6.54L4.43938 5.5372C4.07675 5.16797 4.07675 4.56935 4.43938 4.20012C4.80201 3.8309 5.38995 3.8309 5.75258 4.20012L6.73747 5.20293C7.1001 5.57215 7.1001 6.17078 6.73747 6.54ZM2.82143 14.1818C3.33426 14.1818 3.75 13.7585 3.75 13.2364C3.75 12.7142 3.33426 12.2909 2.82143 12.2909H1.42857C0.915736 12.2909 0.5 12.7142 0.5 13.2364C0.5 13.7585 0.915736 14.1818 1.42857 14.1818H2.82143Z" fill="#696969"/>
</svg>
