<svg width="34" height="34" viewBox="0 0 34 34" fill="none" xmlns="http://www.w3.org/2000/svg">
<g id="beats.headphones">
<path id="beats.headphones_2" d="M6.21014 15.9503C6.21014 17.818 6.67973 19.7497 7.55487 21.5747C7.26671 21.9162 7.21335 22.5459 7.52285 23.1649L9.57196 27.3378C9.77474 27.754 10.2337 27.9782 10.6819 27.9782C11.2048 27.9782 11.7171 27.658 11.7705 27.007L9.42255 22.2364C8.64346 20.6462 8.06715 18.373 8.06715 15.961C8.06715 10.6888 11.6638 7.13491 16.9893 7.13491C22.3148 7.13491 25.9221 10.6888 25.9221 15.961C25.9221 18.373 25.3351 20.6462 24.5561 22.2364L22.2081 27.007C22.2615 27.658 22.7738 27.9782 23.3074 27.9782C23.745 27.9782 24.2039 27.754 24.4173 27.3378L26.4557 23.1649C26.7653 22.5459 26.7226 21.9162 26.4344 21.5747C27.3095 19.7497 27.7791 17.818 27.7791 15.9503C27.7791 9.83503 23.5422 5.06445 16.9893 5.06445C10.4364 5.06445 6.21014 9.83503 6.21014 15.9503ZM12.048 19.8991C11.6531 19.088 10.8953 18.9066 10.319 19.1414C9.67868 19.4082 9.24112 20.1766 9.7107 21.1585L12.3788 26.5694C12.8057 27.4445 13.5955 27.754 14.3425 27.3698C14.9829 27.0497 15.207 26.3239 14.8335 25.5555L12.048 19.8991ZM21.9306 19.8991L19.1451 25.5555C18.7716 26.3239 19.0064 27.0497 19.6467 27.3698C20.3938 27.754 21.1729 27.4445 21.6105 26.5694L24.2679 21.1585C24.7482 20.1766 24.2999 19.4082 23.6596 19.1414C23.0833 18.9066 22.3362 19.088 21.9306 19.8991Z" fill="#696969"/>
</g>
</svg>
