<svg width="97" height="97" viewBox="0 0 97 97" fill="none" xmlns="http://www.w3.org/2000/svg">
<g id="Group" filter="url(#filter0_d_859_533)">
<g id="Group_2">
<g id="Group_3">
<g id="Group_4">
<path id="Vector" d="M49.8097 20.042C34.6697 19.2222 21.6769 30.5102 20.2371 45.4616C21.2274 38.4337 27.4481 33.212 34.6663 33.6028C42.2888 34.0156 48.1334 40.5295 47.7207 48.152C47.3079 55.7746 40.794 61.6192 33.1714 61.2064C25.9532 60.8156 20.3328 54.9526 20.1072 47.8588C19.9238 62.8783 31.6218 75.5035 46.7618 76.3235C62.3034 77.165 75.5849 65.2482 76.4264 49.7065C77.2681 34.1649 65.3514 20.8835 49.8097 20.042Z" fill="url(#paint0_linear_859_533)"/>
<g id="Group_5">
<path id="Vector_2" d="M43.3632 25.8351C31.4549 25.1902 21.2443 34.1199 20.2093 45.9106C20.9926 38.6578 27.3259 33.2052 34.697 33.6045C42.3195 34.0173 48.1641 40.5312 47.7513 48.1537C47.3386 55.7762 40.8247 61.6208 33.2021 61.2081C25.831 60.8088 20.1236 54.7043 20.1282 47.4093C19.8837 59.2427 29.0705 69.2228 40.9787 69.8677C53.138 70.5262 63.5287 61.203 64.1872 49.0437C64.8456 36.8845 55.5224 26.4935 43.3632 25.8351Z" fill="#BEBDBE"/>
<path id="Vector_3" d="M20.1306 47.256C20.1309 47.2384 20.1319 47.2205 20.1321 47.2026C20.1316 47.2205 20.1311 47.2381 20.1306 47.256Z" fill="#BEBDBE"/>
<path id="Vector_4" d="M20.1951 46.0664C20.1935 46.084 20.1923 46.1019 20.1907 46.1195C20.1925 46.1019 20.1933 46.084 20.1951 46.0664Z" fill="#BEBDBE"/>
</g>
<g id="Group_6">
<path id="Vector_5" d="M64.0268 50.3655C64.0135 50.473 64.0005 50.5807 63.9848 50.6882C63.9669 50.8374 63.9442 50.9838 63.9215 51.1302C63.9056 51.2425 63.8872 51.3548 63.8664 51.4669C63.8401 51.6352 63.8089 51.8033 63.7751 51.969C63.7609 52.0495 63.7445 52.1275 63.7278 52.2052C63.621 52.7238 63.4974 53.2339 63.3544 53.7356C63.3358 53.8085 63.3145 53.881 63.2935 53.9513C63.2694 54.0361 63.245 54.1184 63.2184 54.2008C63.194 54.288 63.1672 54.3728 63.138 54.4573C63.0996 54.5759 63.0612 54.6942 63.0203 54.8128C62.9819 54.9314 62.9411 55.0498 62.8976 55.1681C62.816 55.4024 62.7271 55.6338 62.6358 55.8652C62.5445 56.0966 62.4484 56.3251 62.3501 56.5511C62.3081 56.6473 62.266 56.741 62.224 56.8347C62.1651 56.9668 62.104 57.0965 62.0404 57.226C61.9875 57.3388 61.9349 57.4492 61.8796 57.5593C61.8243 57.6694 61.7692 57.7798 61.7117 57.8873C61.654 57.9974 61.5965 58.1052 61.539 58.2151C61.1888 58.8631 60.8077 59.4923 60.3958 60.0976C60.3316 60.1925 60.2649 60.2898 60.1983 60.3821C59.8435 60.8871 59.4698 61.3789 59.0751 61.8499C58.9986 61.9441 58.9198 62.0359 58.8387 62.1274C58.7467 62.2356 58.6522 62.3438 58.5578 62.4494C58.4897 62.5245 58.4216 62.5996 58.3537 62.6721C58.1679 62.8738 57.9776 63.0725 57.7849 63.2665C57.6781 63.374 57.5714 63.4815 57.46 63.586C57.1066 63.9312 56.7393 64.2609 56.3625 64.5799C56.2618 64.6654 56.1589 64.7509 56.0557 64.834C55.6026 65.2033 55.1355 65.5545 54.6549 65.8878C54.5703 65.9473 54.4836 66.004 54.3967 66.0634C54.2715 66.1477 54.1438 66.2318 54.0165 66.3113C53.8991 66.3861 53.7819 66.461 53.6624 66.5332C53.5962 66.574 53.5324 66.6149 53.4689 66.6506C53.4001 66.6936 53.3291 66.7342 53.2602 66.7747C53.2221 66.7999 53.1839 66.8223 53.1433 66.8421C52.9554 66.9501 52.7675 67.0557 52.5774 67.1586C51.9613 67.4919 51.3297 67.7923 50.6848 68.0653C50.5539 68.1196 50.4254 68.1742 50.2945 68.2264C50.0756 68.3131 49.857 68.3971 49.6363 68.4737C49.4604 68.5406 49.2822 68.6022 49.1044 68.6616C48.8363 68.7505 48.5658 68.8343 48.2934 68.913C48.1583 68.9524 48.0209 68.9918 47.8835 69.0287C47.8286 69.043 47.7736 69.0572 47.7161 69.0739C47.6786 69.0843 47.6412 69.0944 47.6038 69.1022C47.5639 69.1123 47.5238 69.1225 47.4816 69.1324C47.3393 69.1691 47.197 69.2031 47.055 69.2348C47.0077 69.2444 46.9603 69.2543 46.913 69.2664C46.6265 69.3297 46.3406 69.3855 46.0522 69.4389C45.9403 69.4575 45.8261 69.4758 45.7145 69.4944C45.4911 69.5316 45.2677 69.5662 45.0421 69.5959C44.8711 69.6161 44.6977 69.6388 44.5269 69.6565C44.361 69.6746 44.1953 69.6903 44.0272 69.7033C43.802 69.7231 43.5748 69.7403 43.3451 69.7526C43.234 69.7589 43.1231 69.7628 43.0096 69.7664C42.7284 69.7782 42.4473 69.7852 42.1645 69.7845C42.1079 69.784 42.0514 69.7833 41.9947 69.7826C41.6599 69.7816 41.3234 69.771 40.9846 69.755L40.9232 69.7516C40.5846 69.7309 40.2489 69.7053 39.916 69.67C39.8597 69.6644 39.8035 69.6589 39.747 69.6536C39.4656 69.6236 39.1871 69.5862 38.9086 69.5442C38.7963 69.5282 38.6864 69.5125 38.5765 69.4942C38.3497 69.4572 38.1253 69.4157 37.9038 69.3717C37.7381 69.3406 37.5751 69.3072 37.4121 69.2712C37.2442 69.235 37.0742 69.1939 36.9063 69.1553C36.6853 69.1014 36.4669 69.043 36.2486 68.9819C36.1394 68.9514 36.0278 68.9208 35.9189 68.8901C35.638 68.806 35.3595 68.7196 35.0815 68.6256C35.0356 68.6085 34.9897 68.5935 34.9438 68.5788C34.8062 68.5319 34.6685 68.4826 34.5311 68.4309C34.4924 68.4165 34.4513 68.402 34.4127 68.3877C34.3765 68.3759 34.3402 68.3616 34.3042 68.3474C34.2489 68.3247 34.1958 68.3046 34.1427 68.2846C34.0101 68.2331 33.8777 68.1793 33.7478 68.1254C33.4852 68.0177 33.2256 67.9051 32.9686 67.788C32.7766 67.6989 32.5845 67.6071 32.3976 67.5134C32.2056 67.4218 32.0189 67.3254 31.8322 67.2269C31.7078 67.1612 31.5858 67.0928 31.4616 67.0247C31.1556 66.8557 30.8527 66.6791 30.5576 66.4934C30.46 66.434 30.3622 66.3721 30.2673 66.3103C30.1579 66.2402 30.0484 66.1704 29.9393 66.0956C29.6352 65.8919 29.3364 65.6837 29.0454 65.4664C28.6831 65.2007 28.3314 64.9232 27.9877 64.6338C27.9102 64.5657 27.83 64.4998 27.7524 64.4316C27.6302 64.3266 27.508 64.2191 27.3884 64.1092C27.2851 64.0174 27.1819 63.9232 27.0812 63.8268C26.9711 63.7249 26.8633 63.623 26.7583 63.5189C26.6672 63.4278 26.5737 63.3365 26.4851 63.2457C26.387 63.1469 26.289 63.0481 26.1936 62.9469C25.7139 62.4433 25.2598 61.9192 24.8316 61.3743C24.7466 61.2639 24.6613 61.156 24.5763 61.0429C24.4913 60.9326 24.4086 60.8222 24.3285 60.7096C24.2459 60.5968 24.1659 60.4843 24.086 60.3691C24.006 60.2565 23.9261 60.1413 23.851 60.0266C23.7734 59.9116 23.6961 59.7942 23.6213 59.6768C23.3191 59.2099 23.0351 58.732 22.7686 58.2399C22.7015 58.1158 22.6368 57.9941 22.572 57.8699C22.5252 57.7789 22.4786 57.6876 22.4317 57.5965C22.1807 57.0956 21.9477 56.5809 21.7346 56.0599C21.6868 55.9439 21.6412 55.8309 21.5982 55.7152C21.5525 55.6019 21.5095 55.4865 21.4665 55.3708C21.1982 54.645 20.9654 53.8989 20.775 53.1402C20.7407 53.003 20.7062 52.8658 20.6743 52.7262C20.6403 52.5816 20.6089 52.4347 20.5775 52.2879C20.5502 52.156 20.5229 52.0214 20.4982 51.8874C20.4714 51.7456 20.4446 51.6038 20.4205 51.4623C20.3311 50.9307 20.2594 50.3928 20.2077 49.8484C20.1997 49.7691 20.1917 49.6899 20.1862 49.6085C20.177 49.5071 20.17 49.4083 20.1632 49.3071C20.1545 49.1933 20.1461 49.0798 20.1425 48.9639C20.1362 48.897 20.1325 48.8279 20.1313 48.7591C20.1181 48.5023 20.1123 48.246 20.1091 47.9874C20.1055 47.5096 20.1142 47.0302 20.1403 46.5466C20.1664 46.0631 20.2096 45.5831 20.2649 45.1085C21.36 38.2024 27.5237 33.1039 34.6603 33.4903C37.7451 33.6575 40.5397 34.8228 42.7465 36.6578C39.2286 38.99 36.8213 42.8987 36.5756 47.4364C36.33 51.9741 38.3011 56.1174 41.5466 58.816C43.7511 60.6509 46.5454 61.8187 49.6302 61.9859C56.7678 62.3726 62.9317 57.2716 64.0268 50.3655Z" fill="url(#paint1_linear_859_533)"/>
<path id="Vector_6" d="M64.1512 48.93C64.1251 49.4135 64.0819 49.891 64.0266 50.3657C62.9315 57.2718 56.7678 62.3727 49.631 61.9863C46.5461 61.8191 43.7518 60.6513 41.5473 58.8164C45.0628 56.4839 47.47 52.5776 47.7156 48.0399C47.9612 43.5023 45.9903 39.3563 42.7473 36.6579C40.5404 34.8228 37.7458 33.6576 34.661 33.4905C27.5244 33.104 21.3607 38.2023 20.2656 45.1087C21.1777 37.4468 25.983 31.0713 32.5601 27.8806C32.5754 27.8741 32.5903 27.8676 32.6055 27.8584C32.8101 27.7613 33.0147 27.6664 33.2215 27.5744C33.3499 27.5198 33.4787 27.4628 33.6069 27.4082C33.9823 27.2488 34.3644 27.1022 34.7508 26.963C34.8789 26.9184 35.0069 26.8734 35.137 26.829C35.1771 26.8164 35.2148 26.8036 35.2549 26.7911C35.5006 26.7085 35.7484 26.6331 35.9984 26.5607C36.1334 26.5213 36.2708 26.4819 36.4082 26.445C36.4631 26.4307 36.5181 26.4165 36.5754 26.4022C36.7928 26.3425 37.0147 26.2882 37.2365 26.2387L37.3782 26.2095C37.6647 26.1462 37.9509 26.088 38.2391 26.037C38.3509 26.016 38.4651 25.9976 38.577 25.979C38.8004 25.9418 39.0238 25.9097 39.2494 25.88C39.4204 25.8573 39.5938 25.837 39.7648 25.8167C39.9308 25.7986 40.0964 25.7829 40.2646 25.7699C40.4897 25.7501 40.7169 25.7353 40.9464 25.723C41.0575 25.7167 41.1686 25.7105 41.2821 25.7068C41.5633 25.6974 41.8442 25.6904 42.1273 25.6885C42.1838 25.6892 42.2403 25.6897 42.2971 25.6902C42.6316 25.6935 42.9683 25.702 43.3071 25.7204L43.3685 25.7237C43.7071 25.7421 44.0429 25.7701 44.3759 25.803C44.4322 25.8085 44.4885 25.8141 44.5448 25.8194C44.8261 25.8518 45.1046 25.8892 45.3831 25.9288C45.4954 25.9447 45.6053 25.9629 45.715 25.9812C45.9418 26.0182 46.1662 26.0573 46.3879 26.1013C46.5536 26.1324 46.7166 26.1657 46.8797 26.2017C47.0475 26.2404 47.2176 26.279 47.3852 26.3201C47.6062 26.3739 47.8248 26.43 48.0429 26.4911C48.1521 26.5215 48.2636 26.5522 48.3726 26.5853C48.6537 26.6669 48.932 26.7558 49.21 26.8498L49.3479 26.8942C49.5628 26.9674 49.7778 27.0454 49.9875 27.1283C50.043 27.1485 50.0962 27.1686 50.149 27.1886C50.2817 27.2401 50.414 27.2942 50.5442 27.3478C50.785 27.4471 51.0232 27.5485 51.2584 27.6572C51.2968 27.6741 51.3328 27.6908 51.3714 27.7077C51.4963 27.7661 51.6185 27.8244 51.7434 27.8828C52.1103 28.0627 52.4743 28.2497 52.8303 28.4487C52.952 28.5168 53.0738 28.5874 53.1957 28.6555C53.3914 28.7695 53.5844 28.8856 53.7774 29.0045C53.7916 29.0151 53.8059 29.0233 53.8201 29.0313C60.0142 32.9135 64.1029 39.7706 64.1821 47.4863C64.1862 47.9646 64.1775 48.4464 64.1512 48.93Z" fill="url(#paint2_radial_859_533)"/>
</g>
<path id="Vector_7" d="M64.0011 50.4439C63.9878 50.5513 63.9748 50.6591 63.9591 50.7666C63.9412 50.9158 63.9185 51.0622 63.8958 51.2086C63.8799 51.3209 63.8615 51.4332 63.8407 51.5453C63.8144 51.7136 63.7833 51.8817 63.7494 52.0474C63.7352 52.1278 63.7188 52.2058 63.7021 52.2836C63.5953 52.8022 63.4717 53.3123 63.3287 53.814C63.3101 53.8867 63.2888 53.9596 63.2678 54.0297C63.2437 54.1144 63.2193 54.1968 63.1927 54.2792C63.1683 54.3664 63.1415 54.4511 63.1123 54.5357C63.0739 54.6543 63.0355 54.7729 62.9946 54.8912C62.9562 55.0098 62.9154 55.1282 62.8719 55.2465C62.7903 55.4808 62.7014 55.7122 62.6101 55.9436C62.5188 56.175 62.4227 56.4034 62.3244 56.6295C62.2821 56.7257 62.2403 56.8194 62.1983 56.9131C62.1394 57.0452 62.0783 57.1749 62.0147 57.3044C61.9618 57.4172 61.9307 57.5432 61.8756 57.6534C61.8203 57.7635 61.7797 57.8613 61.7223 57.9691C61.6645 58.0792 61.6041 58.206 61.5464 58.3161C61.1962 58.9642 60.858 59.5955 60.4462 60.2008C60.382 60.2958 60.3098 60.388 60.2433 60.4803C59.8885 60.9853 59.5108 61.4928 59.1161 61.9635C59.0395 62.058 58.963 62.1471 58.8816 62.2386C58.7896 62.3468 58.6963 62.4485 58.6021 62.5543C58.534 62.6294 58.4717 62.7026 58.4038 62.7753C58.2181 62.977 58.0239 63.1857 57.8312 63.3794C57.7244 63.4869 57.6225 63.5903 57.5111 63.6951C57.1578 64.0402 56.8749 64.2716 56.4981 64.5907C56.3974 64.6762 56.1713 64.8472 56.0685 64.9303C55.6153 65.2996 55.11 65.6336 54.6294 65.9669C54.5449 66.0264 54.4581 66.0831 54.3712 66.1425C54.2461 66.2268 54.1183 66.3109 53.991 66.3901C53.8736 66.465 53.7565 66.5399 53.6369 66.6121C53.5708 66.6529 53.507 66.6937 53.4435 66.7297C53.3746 66.7727 53.3036 66.8133 53.2348 66.8538C53.1966 66.8787 53.1585 66.9014 53.1179 66.9212C52.93 67.0292 52.7421 67.1348 52.552 67.2376C51.9358 67.571 51.3042 67.8717 50.6593 68.1444C50.5284 68.1987 50.3999 68.2533 50.269 68.3055C50.0502 68.3919 49.8316 68.4762 49.6108 68.5528C49.435 68.6197 49.2567 68.6813 49.079 68.7405C48.8109 68.8293 48.5403 68.9132 48.2679 68.9919C48.1329 69.0313 47.9952 69.0706 47.858 69.1076C47.8032 69.1218 47.7481 69.1361 47.6906 69.1528C47.6532 69.1631 47.6158 69.1733 47.5783 69.181C47.5385 69.1912 47.4984 69.2013 47.4561 69.2112C47.3138 69.2479 47.1716 69.282 47.0296 69.3136C46.9822 69.3233 46.9349 69.3332 46.8875 69.3453C46.6011 69.4085 46.3151 69.4643 46.0267 69.5177C45.9149 69.5363 45.8006 69.5547 45.6891 69.5733C45.4656 69.6105 45.2422 69.645 45.0166 69.6747C44.8456 69.695 44.6722 69.7177 44.5014 69.7353C44.3355 69.7534 44.1698 69.7691 44.0017 69.7822C43.7766 69.802 43.5493 69.8191 43.3199 69.8315C43.2088 69.8377 43.0976 69.8416 42.9844 69.8452C42.7032 69.8571 42.4221 69.8641 42.1392 69.8636C42.0827 69.8629 42.0262 69.8624 41.9694 69.8617C41.6347 69.8607 41.2982 69.8498 40.9594 69.8341L40.898 69.8307C40.5594 69.81 40.2236 69.7844 39.8908 69.7491C39.8345 69.7435 39.7783 69.738 39.722 69.7327C39.4406 69.7027 39.1619 69.6655 38.8836 69.6233C38.7713 69.6073 38.6614 69.5916 38.5515 69.5733C38.3247 69.5363 38.1003 69.4948 37.8788 69.4506C37.7132 69.4194 37.5501 69.3861 37.3871 69.3501C37.2192 69.3139 37.0492 69.2728 36.8813 69.2342C36.6603 69.1803 36.442 69.1218 36.2236 69.0607C36.1144 69.0303 36.0029 68.9996 35.8939 68.969C35.613 68.8849 35.3345 68.7984 35.0565 68.7045C35.0106 68.6873 34.9648 68.6724 34.9189 68.6576C34.7812 68.6108 34.6435 68.5615 34.5061 68.5098C34.4674 68.4953 34.4264 68.4808 34.3877 68.4666C34.3515 68.4547 34.3153 68.4405 34.279 68.4262C34.2237 68.4035 34.1706 68.3835 34.1175 68.3634C33.9849 68.312 33.8525 68.2581 33.7223 68.2043C33.4598 68.0965 33.2001 67.984 32.9431 67.8666C32.7511 67.7775 32.5591 67.6859 32.3721 67.592C32.1801 67.5004 31.9934 67.4041 31.8067 67.3053C31.6823 67.2396 31.5603 67.1712 31.4362 67.1031C31.1304 66.934 30.8273 66.7575 30.5321 66.5717C30.4346 66.5123 30.337 66.4505 30.2418 66.3887C30.1324 66.3189 30.023 66.2488 29.9138 66.1739C29.6097 65.9703 29.311 65.7624 29.0199 65.5447C28.6576 65.2791 28.3059 65.0015 27.9622 64.7122C27.8847 64.6441 27.8045 64.5781 27.727 64.51C27.6048 64.405 27.4825 64.2975 27.363 64.1876C27.2596 64.0958 27.1565 64.0016 27.0558 63.9052C26.9456 63.8033 26.8379 63.7014 26.7328 63.5973C26.6418 63.5062 26.5483 63.4149 26.4597 63.3241C26.3616 63.2253 26.2635 63.1265 26.1681 63.0253C25.6884 62.5217 25.2344 61.9976 24.8061 61.4527C24.7211 61.3423 24.6358 61.2344 24.5508 61.1213C24.4658 61.0109 24.3832 60.9006 24.303 60.788C24.2204 60.6752 24.1405 60.5626 24.0605 60.4474C23.9806 60.3349 23.9006 60.2197 23.8255 60.1049C23.748 59.99 23.6707 59.8726 23.5958 59.7552C23.2936 59.2883 23.0096 58.8103 22.7432 58.3183C22.676 58.1942 22.6113 58.0724 22.5466 57.9483C22.4997 57.8572 22.4531 57.7659 22.4062 57.6749C22.1553 57.1739 21.9222 56.6592 21.7092 56.1382C21.6614 56.0226 21.6157 55.9093 21.5727 55.7936C21.5271 55.6803 21.4841 55.5648 21.4413 55.4494C21.173 54.7236 20.9401 53.9775 20.7498 53.2188C20.7153 53.0816 20.681 52.9445 20.6491 52.8048C20.615 52.6602 20.5836 52.5133 20.5522 52.3665C20.525 52.2346 20.4977 52.1001 20.473 51.966C20.4462 51.8242 20.4194 51.6824 20.3952 51.5409C20.3059 51.0093 20.2341 50.4714 20.1825 49.927C20.1745 49.8478 20.1665 49.7685 20.161 49.6871C20.1518 49.5857 20.1448 49.4869 20.1378 49.3857C20.1291 49.2719 20.1206 49.1584 20.117 49.0425C20.1107 48.9756 20.1071 48.9065 20.1059 48.8377C20.0926 48.5809 20.0868 48.3247 20.0837 48.066C20.08 47.5882 20.0887 47.1088 20.1148 46.6252C20.1409 46.1417 20.1841 45.6618 20.2395 45.1871C21.3346 38.281 27.4982 33.1825 34.6348 33.5689C37.7197 33.7361 40.5142 34.9015 42.7211 36.7364C39.2032 39.0689 36.8574 42.9926 36.6115 47.5303C36.3659 52.0679 38.3795 56.1332 41.625 58.8318C43.8295 60.6667 46.5197 61.8976 49.6045 62.0647C56.7421 62.4509 62.9058 57.35 64.0011 50.4439Z" fill="url(#paint3_radial_859_533)"/>
<path id="Vector_8" d="M56.7225 64.3816C56.2673 64.7531 55.798 65.1065 55.3151 65.4417C55.2303 65.5016 55.1432 65.5586 55.0557 65.6183C54.9299 65.703 54.8016 65.7878 54.6739 65.8675C54.556 65.9429 54.4381 66.0182 54.3181 66.0909C54.2517 66.132 54.1874 66.1731 54.1236 66.2091C54.0546 66.2523 53.9831 66.2931 53.914 66.3339C53.8756 66.3591 53.8372 66.3818 53.7966 66.4018C53.6077 66.5105 53.4191 66.6165 53.228 66.7201C52.609 67.0554 51.9745 67.3578 51.3265 67.6322C51.1948 67.687 51.0658 67.7418 50.9344 67.7942C50.7146 67.8814 50.4949 67.966 50.2731 68.043C50.0963 68.1102 49.9174 68.1722 49.7386 68.2319C49.4691 68.3213 49.1976 68.4056 48.9237 68.4848C48.7879 68.5244 48.6498 68.564 48.5119 68.6012C48.4568 68.6155 48.4015 68.6299 48.3438 68.6466C48.3061 68.657 48.2684 68.6674 48.231 68.6751C48.1909 68.6853 48.1508 68.6956 48.1083 68.7055C47.9653 68.7423 47.8225 68.7768 47.6798 68.8087C47.6322 68.8186 47.5846 68.8282 47.537 68.8406C47.2494 68.9041 46.9617 68.9604 46.6721 69.014C46.5598 69.0326 46.4451 69.0512 46.3328 69.0698C46.1081 69.1072 45.8838 69.142 45.6572 69.1719C45.4855 69.1925 45.3111 69.2152 45.1396 69.2331C44.9729 69.2512 44.8065 69.2671 44.6374 69.2802C44.4114 69.3 44.1829 69.3173 43.9522 69.3297C43.8406 69.3359 43.729 69.3398 43.615 69.3437C43.3324 69.3555 43.0503 69.3625 42.7658 69.362C42.709 69.3613 42.652 69.3608 42.5953 69.3601C42.2591 69.3591 41.9209 69.3483 41.5804 69.3323L41.5188 69.3289C41.1787 69.3079 40.8413 69.2823 40.507 69.2468C40.4505 69.2413 40.3937 69.2357 40.3372 69.2302C40.0544 69.2 39.7747 69.1625 39.495 69.1203C39.3822 69.1043 39.2718 69.0884 39.1614 69.07C38.9334 69.0328 38.7083 68.991 38.4856 68.9468C38.3192 68.9154 38.1552 68.8819 37.9917 68.8459C37.8231 68.8094 37.6521 68.7681 37.4837 68.7292C37.2615 68.6751 37.0422 68.6162 36.8231 68.5548C36.7135 68.5242 36.6014 68.4932 36.4917 68.4626C36.2096 68.378 35.9299 68.2911 35.6507 68.1966C35.6046 68.1792 35.5585 68.1645 35.5123 68.1495C35.3739 68.1024 35.2358 68.0529 35.0976 68.0008C35.0587 67.9863 35.0177 67.9715 34.9788 67.957C34.9423 67.9452 34.9061 67.931 34.8696 67.9165C34.8141 67.8938 34.7607 67.8735 34.7073 67.8532C34.5742 67.8015 34.4411 67.7471 34.3105 67.693C34.0467 67.5846 33.7859 67.4715 33.5277 67.3534C33.3347 67.2638 33.1419 67.1716 32.954 67.0774C32.7613 66.9851 32.5736 66.8885 32.3859 66.7892C32.2611 66.723 32.1386 66.6544 32.0137 66.5859C31.7065 66.4158 31.4019 66.2383 31.1056 66.0513C31.0075 65.9917 30.9094 65.9294 30.8138 65.8673C30.7039 65.797 30.594 65.7267 30.4843 65.6514C30.1788 65.4465 29.8786 65.2374 29.5863 65.0185C29.2226 64.7512 28.8692 64.4722 28.5238 64.1812C28.4458 64.1126 28.3654 64.0464 28.2876 63.9778C28.1647 63.872 28.042 63.764 27.9219 63.6534C27.8181 63.5611 27.7144 63.4664 27.6135 63.3694C27.5029 63.2667 27.3947 63.1643 27.2891 63.0597C27.1976 62.9682 27.1036 62.8764 27.0147 62.7848C26.9162 62.6853 26.8179 62.5861 26.722 62.4841C26.2401 61.9776 25.7839 61.4504 25.3537 60.9023C25.2682 60.7912 25.1827 60.6825 25.0972 60.569C25.0117 60.4579 24.9286 60.3471 24.8482 60.2338C24.7653 60.1203 24.6849 60.007 24.6047 59.8913C24.5243 59.778 24.4441 59.6623 24.3687 59.5469C24.291 59.4312 24.2132 59.3131 24.1381 59.1952C23.8347 58.7256 23.5492 58.2448 23.2816 57.7499C23.2142 57.625 23.149 57.5025 23.084 57.3776C23.0372 57.2859 22.9901 57.1943 22.9432 57.1025C22.691 56.5987 22.457 56.0809 22.243 55.5567C22.1949 55.4403 22.149 55.3263 22.106 55.2101C22.0604 55.0961 22.0172 54.9799 21.9739 54.8638C21.7044 54.1336 21.4706 53.3832 21.2795 52.6202C21.245 52.482 21.2104 52.3441 21.1786 52.2038C21.1445 52.0584 21.1129 51.9106 21.0812 51.7627C21.0537 51.6301 21.0264 51.4949 21.0018 51.3599C20.9749 51.2174 20.9479 51.0746 20.9235 50.9323C20.8336 50.3976 20.7617 49.8566 20.7097 49.309C20.7018 49.2293 20.6936 49.1496 20.6882 49.0677C20.6791 48.9658 20.6721 48.8663 20.6651 48.7643C20.6564 48.6501 20.6477 48.5356 20.6443 48.4192C20.638 48.352 20.6344 48.2825 20.6332 48.2132C20.6199 47.955 20.6141 47.6972 20.611 47.4371C20.6073 46.9567 20.616 46.4744 20.6424 45.9879C20.6687 45.5017 20.7122 45.0187 20.7677 44.5414C21.2571 41.4531 23.4589 38.3209 25.5993 36.2764C22.9422 38.212 20.6921 41.7159 20.1576 45.0899C20.102 45.5672 20.0586 46.0502 20.0322 46.5364C20.0059 47.0229 19.9972 47.505 20.0008 47.9856C20.004 48.2458 20.0098 48.5035 20.0231 48.7617C20.0243 48.831 20.0279 48.9006 20.0342 48.9677C20.0378 49.0841 20.0465 49.1986 20.0549 49.3129C20.062 49.4148 20.0687 49.5141 20.0781 49.6162C20.0834 49.6981 20.0917 49.7778 20.0996 49.8575C20.1516 50.4051 20.2235 50.9461 20.3134 51.4809C20.3378 51.6234 20.3648 51.7659 20.3916 51.9084C20.4165 52.0434 20.4438 52.1787 20.4711 52.3113C20.5027 52.4591 20.5341 52.6069 20.5684 52.7523C20.6003 52.8926 20.6349 53.0308 20.6696 53.1687C20.8607 53.9317 21.0945 54.6821 21.3641 55.4123C21.4073 55.5285 21.4503 55.6446 21.4962 55.7587C21.5394 55.8748 21.5851 55.9888 21.6331 56.1053C21.8471 56.6294 22.0812 57.147 22.3333 57.6511C22.3802 57.7428 22.4273 57.8344 22.4741 57.9262C22.5391 58.051 22.6041 58.1733 22.6715 58.2984C22.9388 58.7933 23.2243 59.2742 23.5279 59.7437C23.6031 59.8616 23.6808 59.9797 23.7586 60.0954C23.834 60.2108 23.9142 60.3265 23.9946 60.4398C24.0748 60.5555 24.1552 60.6688 24.2381 60.7823C24.3185 60.8956 24.4016 61.0064 24.4871 61.1175C24.5723 61.2311 24.6581 61.3398 24.7436 61.4509C25.1738 61.9991 25.63 62.5264 26.1119 63.0327C26.2078 63.1343 26.3063 63.2339 26.4046 63.3334C26.4935 63.4249 26.5874 63.5167 26.679 63.6082C26.7845 63.7131 26.8927 63.8155 27.0034 63.9179C27.1043 64.015 27.2082 64.1097 27.3118 64.2019C27.4318 64.3125 27.5545 64.4205 27.6775 64.5263C27.7553 64.5949 27.8359 64.6611 27.9137 64.7297C28.2591 65.0207 28.6122 65.2999 28.9762 65.5671C29.2685 65.7859 29.5687 65.9953 29.8742 66.1999C29.9839 66.2752 30.0938 66.3455 30.2037 66.4158C30.2993 66.4779 30.3971 66.5402 30.4954 66.5999C30.7921 66.7868 31.0964 66.9641 31.4036 67.1344C31.5285 67.203 31.6509 67.2716 31.7758 67.3377C31.9632 67.437 32.1509 67.5339 32.3437 67.6259C32.5313 67.7203 32.7243 67.8124 32.9173 67.902C33.1755 68.0198 33.4364 68.1331 33.7001 68.2416C33.8308 68.2957 33.9639 68.35 34.0969 68.4017C34.1503 68.422 34.2035 68.4423 34.2593 68.465C34.2955 68.4792 34.332 68.4937 34.3684 68.5056C34.4073 68.52 34.4484 68.5345 34.4873 68.549C34.6254 68.601 34.7636 68.6507 34.902 68.6978C34.9481 68.7128 34.9942 68.7275 35.0404 68.7449C35.3196 68.8394 35.5993 68.9263 35.8816 69.0108C35.9913 69.0415 36.1034 69.0724 36.213 69.1031C36.4323 69.1645 36.6516 69.2234 36.8736 69.2775C37.0422 69.3164 37.213 69.3577 37.3816 69.3941C37.5453 69.4304 37.7091 69.464 37.8755 69.4951C38.0982 69.5393 38.3233 69.5813 38.5513 69.6183C38.6617 69.6367 38.7721 69.6526 38.8849 69.6685C39.1646 69.711 39.4442 69.7485 39.7271 69.7784C39.7836 69.784 39.8404 69.7895 39.8969 69.7951C40.2312 69.8306 40.5686 69.8562 40.9087 69.8772L40.9702 69.8806C41.3106 69.8965 41.6487 69.9074 41.9849 69.9084C42.0417 69.9091 42.0987 69.9096 42.1554 69.9103C42.4397 69.9108 42.7221 69.9038 43.0047 69.892C43.1187 69.8883 43.23 69.8845 43.3416 69.8779C43.5723 69.8656 43.8008 69.8485 44.0268 69.8284C44.1957 69.8151 44.3623 69.7994 44.529 69.7813C44.7005 69.7635 44.8749 69.7408 45.0466 69.7202C45.2732 69.6905 45.4978 69.6555 45.7222 69.6181C45.8345 69.5995 45.9492 69.5809 46.0615 69.5623C46.3511 69.5086 46.6385 69.4524 46.9265 69.3888C46.974 69.3765 47.0216 69.3669 47.0692 69.357C47.2119 69.3251 47.3547 69.2908 47.4977 69.2538C47.5402 69.2437 47.5803 69.2335 47.6204 69.2234C47.6578 69.2154 47.6955 69.2053 47.7332 69.1949C47.7909 69.1782 47.8462 69.164 47.9013 69.1495C48.0392 69.1123 48.1773 69.0729 48.3131 69.0331C48.587 68.9538 48.8585 68.8695 49.128 68.7802C49.3068 68.7205 49.4857 68.6584 49.6625 68.5913C49.8843 68.5142 50.1041 68.4295 50.3239 68.3425C50.4552 68.2903 50.5845 68.2353 50.7159 68.1805C51.3637 67.9061 51.9984 67.6037 52.6175 67.2684C52.8085 67.1648 52.9971 67.0588 53.186 66.9501C53.2266 66.93 53.265 66.9073 53.3034 66.8822C53.3725 66.8414 53.4437 66.8006 53.5128 66.7573C53.5766 66.7211 53.6406 66.68 53.7072 66.6392C53.8273 66.5665 53.9452 66.4912 54.063 66.4158C54.191 66.3361 54.3193 66.2513 54.4449 66.1666C54.5321 66.1069 54.6193 66.0496 54.7043 65.99C55.1874 65.6547 55.6564 65.3014 56.1117 64.9299C56.2151 64.8463 56.3187 64.7603 56.4199 64.6741C56.6856 64.4485 56.9443 64.2154 57.1993 63.9778C57.1428 64.0268 57.0875 64.0773 57.0303 64.1256C56.9295 64.2121 56.8262 64.298 56.7225 64.3816Z" fill="url(#paint4_radial_859_533)"/>
<path id="Vector_9" d="M48.2016 47.5682C48.4472 43.0306 46.4763 38.8846 43.2332 36.1862C41.0263 34.3513 38.2318 33.1857 35.1469 33.0188C31.1829 32.804 27.5396 34.3564 24.8779 36.8959C27.4766 34.6928 30.8689 33.3649 34.5395 33.5637C37.6243 33.7308 40.4189 34.8962 42.6258 36.7311C45.8688 39.4295 47.84 43.5755 47.5941 48.1131C47.3953 51.7825 45.7826 55.0381 43.3139 57.3832C46.1239 55.0116 47.9871 51.5308 48.2016 47.5682Z" fill="url(#paint5_radial_859_533)"/>
<g id="Group_7">
<path id="Vector_10" d="M64.4688 48.8183C65.1277 36.6528 55.7429 26.2533 43.5073 25.5908C35.6244 25.164 28.4878 28.8868 24.2294 34.8408C28.5419 29.3759 35.3725 26.0171 42.881 26.4239C55.1164 27.0864 64.5011 37.4858 63.8425 49.6513C63.6079 53.9801 62.0831 57.9101 59.7296 61.1976C62.4469 57.7569 64.2142 53.5195 64.4688 48.8183Z" fill="url(#paint6_linear_859_533)"/>
</g>
</g>
<g id="Group_8">
<path id="Vector_11" d="M41.5777 58.7779C42.4139 59.4748 43.3448 60.0494 44.3189 60.5223C45.2915 60.9993 46.3149 61.3696 47.3665 61.6152C48.4198 61.8485 49.4956 61.9908 50.5743 61.9712C51.6518 61.9592 52.7269 61.8152 53.771 61.5493C54.0326 61.485 54.2898 61.4044 54.5497 61.3326C54.8079 61.2551 55.0605 61.1602 55.3163 61.0749C55.8219 60.8778 56.3238 60.695 56.7882 60.424C57.7285 59.8984 58.6009 59.2509 59.4127 58.5388C60.2219 57.8227 60.9614 57.0244 61.6037 56.1518C61.9285 55.7182 62.2319 55.268 62.5109 54.8021C62.7855 54.3337 63.0391 53.8528 63.2736 53.3613C62.8679 54.3721 62.3413 55.3359 61.7201 56.2358C61.0943 57.1329 60.3658 57.9589 59.5634 58.7055C58.7616 59.4538 57.8703 60.1049 56.9175 60.6542C56.6774 60.7868 56.4349 60.9237 56.1752 61.0257C55.9209 61.1281 55.6702 61.2406 55.4125 61.3348C55.1528 61.4239 54.8963 61.5225 54.6338 61.6036C54.3693 61.6775 54.1087 61.7662 53.8406 61.8275C51.7078 62.3541 49.4415 62.3797 47.3143 61.8278C45.1939 61.2759 43.1897 60.246 41.5777 58.7779Z" fill="url(#paint7_radial_859_533)"/>
</g>
</g>
</g>
</g>
<defs>
<filter id="filter0_d_859_533" x="0.100061" y="0.1" width="96.2683" height="96.1652" filterUnits="userSpaceOnUse" color-interpolation-filters="sRGB">
<feFlood flood-opacity="0" result="BackgroundImageFix"/>
<feColorMatrix in="SourceAlpha" type="matrix" values="0 0 0 0 0 0 0 0 0 0 0 0 0 0 0 0 0 0 127 0" result="hardAlpha"/>
<feOffset/>
<feGaussianBlur stdDeviation="9.95"/>
<feComposite in2="hardAlpha" operator="out"/>
<feColorMatrix type="matrix" values="0 0 0 0 0.594645 0 0 0 0 0.8932 0 0 0 0 1 0 0 0 0.81 0"/>
<feBlend mode="normal" in2="BackgroundImageFix" result="effect1_dropShadow_859_533"/>
<feBlend mode="normal" in="SourceGraphic" in2="effect1_dropShadow_859_533" result="shape"/>
</filter>
<linearGradient id="paint0_linear_859_533" x1="57.8824" y1="28.486" x2="36.9654" y2="71.4215" gradientUnits="userSpaceOnUse">
<stop stop-color="#210440"/>
<stop offset="0.1092" stop-color="#1B1252"/>
<stop offset="0.5691" stop-color="#044C9D"/>
<stop offset="0.645" stop-color="#064797"/>
<stop offset="0.7473" stop-color="#0B3A86"/>
<stop offset="0.8647" stop-color="#14246A"/>
<stop offset="0.9925" stop-color="#200643"/>
<stop offset="1" stop-color="#210440"/>
</linearGradient>
<linearGradient id="paint1_linear_859_533" x1="28.5754" y1="38.9034" x2="48.5107" y2="60.3081" gradientUnits="userSpaceOnUse">
<stop stop-color="#210440"/>
<stop offset="0.0544" stop-color="#1C1050"/>
<stop offset="0.1855" stop-color="#122A71"/>
<stop offset="0.3106" stop-color="#0A3D89"/>
<stop offset="0.4263" stop-color="#064898"/>
<stop offset="0.5232" stop-color="#044C9D"/>
<stop offset="0.7457" stop-color="#112C74"/>
<stop offset="1" stop-color="#210440"/>
</linearGradient>
<radialGradient id="paint2_radial_859_533" cx="0" cy="0" r="1" gradientUnits="userSpaceOnUse" gradientTransform="translate(42.3921 43.6325) rotate(3.10133) scale(20.0784 20.0784)">
<stop stop-color="#04969D"/>
<stop offset="0.0186" stop-color="#04999D"/>
<stop offset="0.3289" stop-color="#04B19D"/>
<stop offset="0.5607" stop-color="#058799"/>
<stop offset="0.854" stop-color="#065795"/>
<stop offset="1" stop-color="#074493"/>
</radialGradient>
<radialGradient id="paint3_radial_859_533" cx="0" cy="0" r="1" gradientUnits="userSpaceOnUse" gradientTransform="translate(41.8747 51.9225) rotate(3.10133) scale(20.0784 20.0784)">
<stop stop-color="#04969D"/>
<stop offset="0.2775" stop-color="#04B19D"/>
<stop offset="0.3911" stop-color="#04AA9C"/>
<stop offset="0.5511" stop-color="#05989B"/>
<stop offset="0.7387" stop-color="#067A98"/>
<stop offset="0.9456" stop-color="#075094"/>
<stop offset="1" stop-color="#074493"/>
</radialGradient>
<radialGradient id="paint4_radial_859_533" cx="0" cy="0" r="1" gradientUnits="userSpaceOnUse" gradientTransform="translate(38.5997 53.0936) scale(17.7309)">
<stop offset="0.2765" stop-color="#074493"/>
<stop offset="0.31" stop-color="#075094"/>
<stop offset="0.4378" stop-color="#067A98"/>
<stop offset="0.5536" stop-color="#05989B"/>
<stop offset="0.6524" stop-color="#04AA9C"/>
<stop offset="0.7225" stop-color="#04B19D"/>
<stop offset="0.8541" stop-color="#074493"/>
<stop offset="0.8879" stop-color="#065F96"/>
<stop offset="0.9334" stop-color="#057D9A"/>
<stop offset="0.9723" stop-color="#048F9C"/>
<stop offset="1" stop-color="#04969D"/>
</radialGradient>
<radialGradient id="paint5_radial_859_533" cx="0" cy="0" r="1" gradientUnits="userSpaceOnUse" gradientTransform="translate(36.5501 45.1913) scale(11.935)">
<stop stop-color="#074493"/>
<stop offset="0.0544" stop-color="#075094"/>
<stop offset="0.2613" stop-color="#067A98"/>
<stop offset="0.4489" stop-color="#05989B"/>
<stop offset="0.6089" stop-color="#04AA9C"/>
<stop offset="0.7225" stop-color="#04B19D"/>
<stop offset="1" stop-color="#04969D"/>
</radialGradient>
<linearGradient id="paint6_linear_859_533" x1="24.2295" y1="43.3775" x2="64.5015" y2="43.3775" gradientUnits="userSpaceOnUse">
<stop stop-color="#210440"/>
<stop offset="0.1494" stop-color="#171E61"/>
<stop offset="0.3262" stop-color="#0D3782"/>
<stop offset="0.4741" stop-color="#064696"/>
<stop offset="0.574" stop-color="#044C9D"/>
<stop offset="0.6521" stop-color="#074493"/>
<stop offset="0.7852" stop-color="#102F78"/>
<stop offset="0.9562" stop-color="#1D0E4C"/>
<stop offset="1" stop-color="#210440"/>
</linearGradient>
<radialGradient id="paint7_radial_859_533" cx="0" cy="0" r="1" gradientUnits="userSpaceOnUse" gradientTransform="translate(52.4256 57.7771) scale(8.38373 8.38373)">
<stop stop-color="#04969D"/>
<stop offset="0.2775" stop-color="#04B19D"/>
<stop offset="0.3911" stop-color="#04AA9C"/>
<stop offset="0.5511" stop-color="#05989B"/>
<stop offset="0.7387" stop-color="#067A98"/>
<stop offset="0.9456" stop-color="#075094"/>
<stop offset="1" stop-color="#074493"/>
</radialGradient>
</defs>
</svg>
