<svg width="28" height="28" viewBox="0 0 28 28" fill="none" xmlns="http://www.w3.org/2000/svg">
<g id="expand-wide">
<path id="Vector" d="M2.33333 11.5938V4.8125C2.33333 4.08516 2.91848 3.5 3.64583 3.5H10.4271C10.788 3.5 11.0833 3.79531 11.0833 4.15625V4.59375C11.0833 4.95469 10.788 5.25 10.4271 5.25H4.08333V11.5938C4.08333 11.9547 3.78802 12.25 3.42708 12.25H2.98958C2.62864 12.25 2.33333 11.9547 2.33333 11.5938ZM17.5729 3.5H24.3542C25.0815 3.5 25.6667 4.08516 25.6667 4.8125V11.5938C25.6667 11.9547 25.3714 12.25 25.0104 12.25H24.5729C24.212 12.25 23.9167 11.9547 23.9167 11.5938V5.25H17.5729C17.212 5.25 16.9167 4.95469 16.9167 4.59375V4.15625C16.9167 3.79531 17.212 3.5 17.5729 3.5ZM25.6667 16.4062V23.1875C25.6667 23.9148 25.0815 24.5 24.3542 24.5H17.5729C17.212 24.5 16.9167 24.2047 16.9167 23.8438V23.4062C16.9167 23.0453 17.212 22.75 17.5729 22.75H23.9167V16.4062C23.9167 16.0453 24.212 15.75 24.5729 15.75H25.0104C25.3714 15.75 25.6667 16.0453 25.6667 16.4062ZM10.4271 24.5H3.64583C2.91848 24.5 2.33333 23.9148 2.33333 23.1875V16.4062C2.33333 16.0453 2.62864 15.75 2.98958 15.75H3.42708C3.78802 15.75 4.08333 16.0453 4.08333 16.4062V22.75H10.4271C10.788 22.75 11.0833 23.0453 11.0833 23.4062V23.8438C11.0833 24.2047 10.788 24.5 10.4271 24.5Z" fill="black"/>
</g>
</svg>
