<svg width="26" height="24" viewBox="0 0 26 24" fill="none" xmlns="http://www.w3.org/2000/svg">
<path id="newspaper" d="M0 20.4559C0 22.7485 1.25169 24 3.61233 24H22.3767C24.7593 24 26 22.7596 26 20.3895V3.61052C26 1.24042 24.7593 0 22.3767 0H8.64105C6.25845 0 5.02872 1.24042 5.02872 3.61052V8.53899H2.61318C0.977196 8.53899 0 9.46931 0 11.0531V20.4559ZM6.89527 21.785C7.10389 21.3862 7.21368 20.91 7.21368 20.3673V3.80988C7.21368 2.74665 7.76267 2.21504 8.78378 2.21504H22.234C23.266 2.21504 23.8041 2.74665 23.8041 3.80988V20.1901C23.8041 21.2533 23.266 21.785 22.234 21.785H6.89527ZM10.0025 6.92201H21.0372C21.4544 6.92201 21.7728 6.58976 21.7728 6.1689C21.7728 5.75911 21.4544 5.43793 21.0372 5.43793H10.0025C9.56335 5.43793 9.24493 5.75911 9.24493 6.1689C9.24493 6.58976 9.57433 6.92201 10.0025 6.92201ZM10.0025 10.743H21.0372C21.4544 10.743 21.7728 10.4218 21.7728 10.012C21.7728 9.59114 21.4544 9.25888 21.0372 9.25888H10.0025C9.57433 9.25888 9.24493 9.59114 9.24493 10.012C9.24493 10.4218 9.56335 10.743 10.0025 10.743ZM2.18497 20.3341V11.4407C2.18497 11.0088 2.45946 10.743 2.89865 10.743H5.02872V20.3341C5.02872 21.1869 4.41385 21.785 3.61233 21.785C2.81081 21.785 2.18497 21.1647 2.18497 20.3341ZM10.6174 18.4292H13.3404C14.1968 18.4292 14.7238 17.9086 14.7238 17.0448V14.4753C14.7238 13.6225 14.1968 13.0909 13.3404 13.0909H10.6174C9.76098 13.0909 9.23395 13.6225 9.23395 14.4753V17.0448C9.23395 17.9086 9.76098 18.4292 10.6174 18.4292ZM16.6672 14.575H21.0372C21.4544 14.575 21.7728 14.2538 21.7728 13.844C21.7728 13.4232 21.4544 13.0909 21.0372 13.0909H16.6672C16.228 13.0909 15.9206 13.4232 15.9206 13.844C15.9206 14.2538 16.239 14.575 16.6672 14.575ZM16.6672 18.4292H21.0372C21.4544 18.4292 21.7728 18.108 21.7728 17.6982C21.7728 17.2773 21.4544 16.9451 21.0372 16.9451H16.6672C16.239 16.9451 15.9206 17.2773 15.9206 17.6982C15.9206 18.108 16.228 18.4292 16.6672 18.4292Z" fill="#696969"/>
</svg>
