<svg width="24" height="24" viewBox="0 0 24 24" fill="none" xmlns="http://www.w3.org/2000/svg">
<g id="bookmark">
<path id="bookmark_2" d="M7.71345 19.9905C8.12026 19.9905 8.38393 19.7795 9.02427 19.1542L11.9322 16.2765C11.9623 16.2388 12.0301 16.2388 12.0603 16.2765L14.9757 19.1542C15.6161 19.7795 15.8722 19.9905 16.2866 19.9905C16.8892 19.9905 17.2659 19.5761 17.2659 18.8981V5.74465C17.2659 4.24548 16.4824 3.45447 14.9983 3.45447H8.99414C7.51004 3.45447 6.72656 4.24548 6.72656 5.74465V18.8981C6.72656 19.5761 7.10324 19.9905 7.71345 19.9905ZM8.42913 17.5119C8.33119 17.6099 8.21066 17.5797 8.21066 17.4366V5.84258C8.21066 5.2399 8.512 4.9461 9.11468 4.9461H14.8778C15.4805 4.9461 15.7818 5.2399 15.7818 5.84258V17.4366C15.7818 17.5797 15.6688 17.6099 15.5633 17.5119L12.4972 14.5438C12.1808 14.2273 11.8192 14.2273 11.4953 14.5438L8.42913 17.5119Z" fill="#959595"/>
</g>
</svg>
